<svg width="850" height="300" viewBox="0 0 850 300" fill="none" xmlns="http://www.w3.org/2000/svg">
<path d="M275.76 195L257.072 161.08H251.824V195H229.936V105.144H266.672C273.755 105.144 279.771 106.381 284.72 108.856C289.755 111.331 293.509 114.744 295.984 119.096C298.459 123.363 299.696 128.141 299.696 133.432C299.696 139.405 297.989 144.739 294.576 149.432C291.248 154.125 286.299 157.453 279.728 159.416L300.464 195H275.76ZM251.824 145.592H265.392C269.403 145.592 272.389 144.611 274.352 142.648C276.4 140.685 277.424 137.912 277.424 134.328C277.424 130.915 276.4 128.227 274.352 126.264C272.389 124.301 269.403 123.32 265.392 123.32H251.824V145.592ZM335.324 122.68V140.856H364.636V157.752H335.324V177.464H368.476V195H313.436V105.144H368.476V122.68H335.324ZM404.574 105.144V195H382.686V105.144H404.574ZM503.881 105.144V166.328C503.881 175.8 501.193 183.096 495.817 188.216C490.526 193.336 483.358 195.896 474.313 195.896C464.841 195.896 457.246 193.208 451.529 187.832C445.812 182.456 442.953 174.819 442.953 164.92H464.713C464.713 168.675 465.481 171.533 467.017 173.496C468.553 175.373 470.772 176.312 473.673 176.312C476.318 176.312 478.366 175.459 479.817 173.752C481.268 172.045 481.993 169.571 481.993 166.328V105.144H503.881ZM543.065 105.144V158.904C543.065 164.28 544.388 168.419 547.033 171.32C549.678 174.221 553.561 175.672 558.681 175.672C563.801 175.672 567.726 174.221 570.457 171.32C573.188 168.419 574.553 164.28 574.553 158.904V105.144H596.441V158.776C596.441 166.797 594.734 173.581 591.321 179.128C587.908 184.675 583.3 188.856 577.497 191.672C571.78 194.488 565.38 195.896 558.297 195.896C551.214 195.896 544.857 194.531 539.225 191.8C533.678 188.984 529.284 184.803 526.041 179.256C522.798 173.624 521.177 166.797 521.177 158.776V105.144H543.065ZM633.699 105.144V195H611.811V105.144H633.699ZM645.849 149.944C645.849 141.069 647.769 133.176 651.609 126.264C655.449 119.267 660.782 113.848 667.609 110.008C674.521 106.083 682.329 104.12 691.033 104.12C701.7 104.12 710.83 106.936 718.425 112.568C726.02 118.2 731.097 125.88 733.657 135.608H709.593C707.801 131.853 705.241 128.995 701.913 127.032C698.67 125.069 694.958 124.088 690.777 124.088C684.036 124.088 678.574 126.435 674.393 131.128C670.212 135.821 668.121 142.093 668.121 149.944C668.121 157.795 670.212 164.067 674.393 168.76C678.574 173.453 684.036 175.8 690.777 175.8C694.958 175.8 698.67 174.819 701.913 172.856C705.241 170.893 707.801 168.035 709.593 164.28H733.657C731.097 174.008 726.02 181.688 718.425 187.32C710.83 192.867 701.7 195.64 691.033 195.64C682.329 195.64 674.521 193.72 667.609 189.88C660.782 185.955 655.449 180.536 651.609 173.624C647.769 166.712 645.849 158.819 645.849 149.944ZM768.949 122.68V140.856H798.261V157.752H768.949V177.464H802.101V195H747.061V105.144H802.101V122.68H768.949Z" fill="#FF7A00"/>
<g clip-path="url(#clip0_1_2)">
<path d="M118 227C160.526 227 195 192.526 195 150C195 107.474 160.526 73 118 73C75.4741 73 41 107.474 41 150C41 192.526 75.4741 227 118 227Z" fill="#FF7A00"/>
<path d="M118 221.974C157.75 221.974 189.974 189.75 189.974 150C189.974 110.25 157.75 78.0258 118 78.0258C78.2497 78.0258 46.0258 110.25 46.0258 150C46.0258 189.75 78.2497 221.974 118 221.974Z" fill="#FFDA7D"/>
<path d="M74.8863 197.177C85.5187 206.9 99.4423 213.079 114.798 213.837V157.267C101.495 170.57 88.1912 183.874 74.8863 197.177Z" fill="#FFB730"/>
<path d="M111.249 152.756H54.1506C54.8102 168.303 61.0256 182.409 70.8582 193.148L111.249 152.756Z" fill="#FFB730"/>
<path d="M114.799 142.544V86.1635C99.4904 86.9184 85.6032 93.0623 74.985 102.733C88.2564 116.004 101.527 129.274 114.799 142.544Z" fill="#FFB730"/>
<path d="M70.9481 106.752C61.1008 117.462 54.8583 131.536 54.1551 147.057H111.249C97.8159 133.622 84.3826 120.188 70.9481 106.752Z" fill="#FFB730"/>
<path d="M161.145 102.861C150.348 92.9777 136.146 86.7482 120.498 86.1454V143.507C134.047 129.958 147.596 116.409 161.145 102.861Z" fill="#FFB730"/>
<path d="M125.009 147.057H181.845C181.144 131.6 174.952 117.579 165.175 106.891C151.787 120.279 138.397 133.668 125.009 147.057Z" fill="#FFB730"/>
<path d="M165.262 193.009C175.025 182.289 181.192 168.238 181.849 152.756H125.009C138.427 166.174 151.844 179.592 165.262 193.009Z" fill="#FFB730"/>
<path d="M120.498 156.304V213.854C136.192 213.25 150.431 206.984 161.24 197.046C147.66 183.465 134.079 169.885 120.498 156.304Z" fill="#FFB730"/>
<path d="M91.8219 140.639C92.3443 140.727 92.6957 141.224 92.6066 141.746C92.5179 142.268 92.0219 142.621 91.4994 142.532L73.5938 139.48C73.0713 139.392 72.7212 138.895 72.8091 138.372C72.899 137.851 73.3947 137.499 73.9171 137.588L91.8219 140.639Z" fill="#FFDA7D"/>
<path d="M126.802 131.532C126.537 131.993 125.95 132.149 125.491 131.886C125.032 131.621 124.873 131.033 125.138 130.574L134.204 114.835C134.468 114.376 135.056 114.219 135.516 114.483C135.975 114.748 136.132 115.334 135.867 115.794L126.802 131.532Z" fill="#FFDA7D"/>
<path d="M126.683 115.972C126.574 116.493 126.064 116.822 125.546 116.713C125.027 116.604 124.695 116.093 124.805 115.575L128.573 97.8062C128.684 97.288 129.194 96.9571 129.711 97.0663C130.228 97.1767 130.561 97.6862 130.45 98.2045L126.683 115.972Z" fill="#FFDA7D"/>
<path d="M82.1523 129.391C82.632 129.619 82.8354 130.192 82.6083 130.67C82.3803 131.149 81.8073 131.354 81.3299 131.126L70.4515 126.362C69.9718 126.135 69.7684 125.561 69.9964 125.082C70.2244 124.605 70.7962 124.4 71.2748 124.627L82.1523 129.391Z" fill="#FFDA7D"/>
<path d="M112.19 131.728C112.424 132.205 112.228 132.78 111.752 133.013C111.277 133.248 110.701 133.051 110.467 132.575L104.906 122.081C104.671 121.606 104.871 121.031 105.346 120.796C105.822 120.564 106.395 120.759 106.629 121.235L112.19 131.728Z" fill="#FFDA7D"/>
<path d="M108.455 111.576C108.688 112.053 108.492 112.628 108.017 112.861C107.541 113.096 106.965 112.9 106.733 112.423L101.171 101.929C100.937 101.454 101.135 100.878 101.611 100.643C102.086 100.411 102.661 100.607 102.894 101.082L108.455 111.576Z" fill="#FFDA7D"/>
<path d="M140.555 140.076C140.056 140.257 139.505 140 139.325 139.502C139.144 139.004 139.401 138.452 139.9 138.272L156.971 132.07C157.469 131.889 158.02 132.147 158.202 132.645C158.38 133.143 158.125 133.695 157.626 133.875L140.555 140.076Z" fill="#FFDA7D"/>
<path d="M123.349 166.813C123.27 166.287 123.631 165.8 124.156 165.72C124.679 165.642 125.169 166.005 125.248 166.529L127.925 184.494C128.003 185.018 127.64 185.507 127.115 185.585C126.592 185.662 126.103 185.3 126.025 184.777L123.349 166.813Z" fill="#FFDA7D"/>
<path d="M133.109 178.93C132.871 178.456 133.066 177.88 133.538 177.644C134.013 177.407 134.589 177.6 134.827 178.075L142.917 194.337C143.152 194.811 142.958 195.388 142.484 195.624C142.01 195.859 141.435 195.666 141.197 195.191L133.109 178.93Z" fill="#FFDA7D"/>
<path d="M152.26 143.939C151.73 143.978 151.271 143.581 151.231 143.052C151.193 142.523 151.59 142.063 152.118 142.024L163.93 140.786C164.458 140.747 164.919 141.145 164.958 141.674C164.996 142.203 164.6 142.662 164.07 142.701L152.26 143.939Z" fill="#FFDA7D"/>
<path d="M136.663 158.203C136.206 157.933 136.053 157.345 136.321 156.888C136.59 156.431 137.18 156.278 137.636 156.547L148.056 162.245C148.513 162.513 148.664 163.102 148.394 163.56C148.127 164.016 147.539 164.169 147.082 163.901L136.663 158.203Z" fill="#FFDA7D"/>
<path d="M151.4 170.904C150.941 170.635 150.79 170.047 151.059 169.59C151.325 169.133 151.915 168.979 152.372 169.247L162.791 174.946C163.25 175.214 163.4 175.803 163.133 176.262C162.862 176.717 162.274 176.87 161.819 176.601L151.4 170.904Z" fill="#FFDA7D"/>
<path d="M101.34 155.498C101.861 155.402 102.36 155.747 102.457 156.269C102.551 156.79 102.207 157.291 101.684 157.386L83.8159 160.651C83.2956 160.746 82.7945 160.4 82.6991 159.879C82.605 159.358 82.9497 158.857 83.4712 158.763L101.34 155.498Z" fill="#FFDA7D"/>
<path d="M89.5498 165.652C90.0178 165.398 90.598 165.575 90.8497 166.038C91.1015 166.505 90.9267 167.088 90.4611 167.341L74.473 175.96C74.005 176.21 73.4235 176.036 73.1721 175.569C72.9203 175.102 73.0939 174.521 73.5607 174.269L89.5498 165.652Z" fill="#FFDA7D"/>
<path d="M110.381 168.521C110.635 168.056 111.218 167.884 111.684 168.137C112.151 168.39 112.323 168.974 112.068 169.439L106.715 180.041C106.462 180.507 105.877 180.678 105.41 180.424C104.946 180.171 104.773 179.588 105.027 179.123L110.381 168.521Z" fill="#FFDA7D"/>
<path d="M98.1714 183.668C98.4253 183.201 99.0067 183.031 99.4723 183.284C99.9391 183.535 100.111 184.12 99.8567 184.586L94.5043 195.187C94.2504 195.654 93.6669 195.823 93.2001 195.571C92.7366 195.316 92.5639 194.734 92.8178 194.27L98.1714 183.668Z" fill="#FFDA7D"/>
</g>
<defs>
<clipPath id="clip0_1_2">
<rect width="154" height="154" fill="white" transform="translate(41 73)"/>
</clipPath>
</defs>
</svg>
