<svg width="64" height="64" viewBox="0 0 64 64" fill="none" xmlns="http://www.w3.org/2000/svg">
<g clip-path="url(#clip0_3_138)">
<path d="M32 56C45.2548 56 56 45.2548 56 32C56 18.7452 45.2548 8 32 8C18.7452 8 8 18.7452 8 32C8 45.2548 18.7452 56 32 56Z" fill="#FF7A00"/>
<path d="M32 54.4335C44.3897 54.4335 54.4335 44.3897 54.4335 32C54.4335 19.6103 44.3897 9.56648 32 9.56648C19.6103 9.56648 9.56647 19.6103 9.56647 32C9.56647 44.3897 19.6103 54.4335 32 54.4335Z" fill="#FFDA7D"/>
<path d="M18.562 46.7046C21.8759 49.7349 26.2158 51.6608 31.0018 51.8972V34.2651C26.8555 38.4113 22.7089 42.558 18.562 46.7046Z" fill="#FFB730"/>
<path d="M29.8959 32.859H12.0989C12.3045 37.7048 14.2417 42.1015 17.3064 45.4487L29.8959 32.859Z" fill="#FFB730"/>
<path d="M31.0022 29.6762V12.1029C26.2308 12.3382 21.9023 14.2532 18.5927 17.2674C22.7293 21.4037 26.8656 25.54 31.0022 29.6762Z" fill="#FFB730"/>
<path d="M17.3345 18.5202C14.2652 21.8582 12.3195 26.2448 12.1003 31.0826H29.8959C25.7089 26.8953 21.5219 22.7079 17.3345 18.5202Z" fill="#FFB730"/>
<path d="M45.4478 17.3075C42.0824 14.2268 37.6558 12.2852 32.7786 12.0973V29.9763C37.0017 25.7532 41.2247 21.5302 45.4478 17.3075Z" fill="#FFB730"/>
<path d="M34.1847 31.0826H51.8998C51.6812 26.2648 49.7512 21.8949 46.7039 18.5633C42.5309 22.7363 38.3576 26.9096 34.1847 31.0826Z" fill="#FFB730"/>
<path d="M46.7309 45.4054C49.7739 42.0641 51.6962 37.6845 51.9011 32.859H34.1847C38.367 37.0414 42.5486 41.2234 46.7309 45.4054Z" fill="#FFB730"/>
<path d="M32.7786 33.965V51.9024C37.6701 51.7142 42.1084 49.7612 45.4774 46.6638C41.2448 42.4308 37.0117 38.1978 32.7786 33.965Z" fill="#FFB730"/>
<path d="M23.8406 29.0822C24.0034 29.1099 24.1129 29.2647 24.0852 29.4273C24.0575 29.5901 23.9029 29.6999 23.7401 29.6723L18.1591 28.7212C17.9963 28.6935 17.8871 28.5386 17.9145 28.3758C17.9425 28.2132 18.097 28.1034 18.2599 28.1312L23.8406 29.0822Z" fill="#FFDA7D"/>
<path d="M34.7433 26.2438C34.6609 26.3873 34.478 26.436 34.3349 26.354C34.1917 26.2715 34.1423 26.0883 34.2247 25.9451L37.0504 21.0396C37.1328 20.8964 37.3161 20.8474 37.4596 20.9298C37.6024 21.0122 37.6515 21.1951 37.5691 21.3383L34.7433 26.2438Z" fill="#FFDA7D"/>
<path d="M34.7063 21.394C34.6723 21.5562 34.5134 21.6589 34.3519 21.6249C34.1904 21.5909 34.0866 21.4317 34.121 21.2701L35.2954 15.7318C35.3301 15.5703 35.489 15.4672 35.6502 15.5012C35.8114 15.5356 35.9151 15.6944 35.8805 15.8559L34.7063 21.394Z" fill="#FFDA7D"/>
<path d="M20.8267 25.5764C20.9762 25.6474 21.0396 25.826 20.9688 25.9752C20.8978 26.1244 20.7192 26.1881 20.5704 26.1173L17.1797 24.6322C17.0302 24.5614 16.9668 24.3826 17.0379 24.2334C17.1089 24.0845 17.2871 24.0208 17.4363 24.0916L20.8267 25.5764Z" fill="#FFDA7D"/>
<path d="M30.1892 26.3049C30.262 26.4534 30.2009 26.6327 30.0527 26.7054C29.9045 26.7786 29.725 26.7171 29.6522 26.5689L27.9188 23.2981C27.8456 23.1498 27.9078 22.9707 28.0559 22.8976C28.2041 22.8252 28.383 22.8858 28.4558 23.0344L30.1892 26.3049Z" fill="#FFDA7D"/>
<path d="M29.0248 20.0237C29.0976 20.1722 29.0365 20.3515 28.8883 20.4242C28.7401 20.4973 28.5606 20.4362 28.4882 20.2877L26.7547 17.0169C26.6816 16.8686 26.7434 16.6891 26.8916 16.6161C27.0398 16.5437 27.219 16.6047 27.2917 16.7529L29.0248 20.0237Z" fill="#FFDA7D"/>
<path d="M39.0301 28.9067C38.8745 28.9631 38.703 28.883 38.6466 28.7278C38.5902 28.5727 38.6704 28.4007 38.8259 28.3444L44.1469 26.4114C44.3021 26.355 44.4736 26.4354 44.5303 26.5907C44.586 26.7458 44.5063 26.9178 44.3511 26.9741L39.0301 28.9067Z" fill="#FFDA7D"/>
<path d="M33.6674 37.2403C33.6427 37.0764 33.7551 36.9245 33.9187 36.8999C34.0819 36.8755 34.2345 36.9887 34.2591 37.1519L35.0934 42.7512C35.1178 42.9147 35.0046 43.067 34.8411 43.0913C34.6779 43.1153 34.5257 43.0025 34.5014 42.8396L33.6674 37.2403Z" fill="#FFDA7D"/>
<path d="M36.7093 41.0171C36.6352 40.8693 36.696 40.6898 36.8431 40.6163C36.9909 40.5426 37.1705 40.6027 37.2449 40.7505L39.7662 45.8192C39.8396 45.9671 39.7793 46.147 39.6314 46.2204C39.4836 46.2938 39.3043 46.2337 39.2303 46.0856L36.7093 41.0171Z" fill="#FFDA7D"/>
<path d="M42.6785 30.1107C42.5133 30.1231 42.3701 29.9993 42.3578 29.8344C42.3458 29.6694 42.4696 29.526 42.6341 29.514L46.3159 29.1282C46.4805 29.1159 46.624 29.2401 46.6363 29.4049C46.648 29.5698 46.5248 29.713 46.3596 29.725L42.6785 30.1107Z" fill="#FFDA7D"/>
<path d="M37.817 34.5568C37.6745 34.4727 37.627 34.2895 37.7105 34.147C37.7942 34.0045 37.9781 33.9568 38.1202 34.0405L41.3681 35.8166C41.5106 35.9 41.5577 36.0839 41.4736 36.2264C41.3902 36.3685 41.207 36.4163 41.0645 36.3329L37.817 34.5568Z" fill="#FFDA7D"/>
<path d="M42.4105 38.5155C42.2673 38.4318 42.2202 38.2485 42.304 38.106C42.387 37.9635 42.571 37.9154 42.7135 37.9992L45.961 39.7753C46.1039 39.859 46.1505 40.0426 46.0675 40.1855C45.983 40.3273 45.7998 40.375 45.658 40.2912L42.4105 38.5155Z" fill="#FFDA7D"/>
<path d="M26.8072 33.7138C26.9697 33.6838 27.1252 33.7912 27.1555 33.954C27.1849 34.1162 27.0774 34.2724 26.9146 34.3021L21.3452 35.3197C21.183 35.3494 21.0269 35.2416 20.9971 35.0791C20.9678 34.9169 21.0752 34.7607 21.2378 34.7313L26.8072 33.7138Z" fill="#FFDA7D"/>
<path d="M23.1324 36.8785C23.2783 36.7994 23.4591 36.8545 23.5376 36.999C23.6161 37.1445 23.5616 37.3261 23.4165 37.4051L18.4332 40.0913C18.2873 40.1694 18.1061 40.1151 18.0277 39.9696C17.9492 39.8241 18.0033 39.6428 18.1488 39.5644L23.1324 36.8785Z" fill="#FFDA7D"/>
<path d="M29.6252 37.7729C29.7043 37.6278 29.8862 37.5743 30.0313 37.6531C30.1768 37.7318 30.2306 37.9141 30.1512 38.0589L28.4825 41.3635C28.4037 41.5087 28.2215 41.5618 28.076 41.4827C27.9311 41.4039 27.8774 41.2224 27.9565 41.0772L29.6252 37.7729Z" fill="#FFDA7D"/>
<path d="M25.8197 42.4939C25.8988 42.3484 26.08 42.2953 26.2252 42.3741C26.3707 42.4525 26.4244 42.6347 26.345 42.7799L24.6767 46.0842C24.5976 46.2297 24.4157 46.2825 24.2702 46.204C24.1257 46.1246 24.0719 45.943 24.151 45.7985L25.8197 42.4939Z" fill="#FFDA7D"/>
</g>
<defs>
<clipPath id="clip0_3_138">
<rect width="48" height="48" fill="white" transform="translate(8 8)"/>
</clipPath>
</defs>
</svg>
