<svg width="603" height="505" viewBox="0 0 603 505" fill="none" xmlns="http://www.w3.org/2000/svg">
<g clip-path="url(#clip0_27_101)">
<path d="M531.503 30.6772H0.833546C0.610824 30.6722 0.398894 30.5803 0.243124 30.421C0.0873542 30.2618 0.00012207 30.0478 0.00012207 29.825C0.00012207 29.6023 0.0873542 29.3883 0.243124 29.2291C0.398894 29.0698 0.610824 28.9778 0.833546 28.9729H531.503C531.726 28.9778 531.938 29.0698 532.094 29.2291C532.249 29.3883 532.337 29.6023 532.337 29.825C532.337 30.0478 532.249 30.2618 532.094 30.421C531.938 30.5803 531.726 30.6722 531.503 30.6772V30.6772Z" fill="#CACACA"/>
<path d="M19.5948 18.7471C24.6587 18.7471 28.7637 14.5505 28.7637 9.37357C28.7637 4.19669 24.6587 0 19.5948 0C14.5309 0 10.4258 4.19669 10.4258 9.37357C10.4258 14.5505 14.5309 18.7471 19.5948 18.7471Z" fill="#3F3D56"/>
<path d="M51.2694 18.7471C56.3332 18.7471 60.4383 14.5505 60.4383 9.37357C60.4383 4.19669 56.3332 0 51.2694 0C46.2055 0 42.1004 4.19669 42.1004 9.37357C42.1004 14.5505 46.2055 18.7471 51.2694 18.7471Z" fill="#3F3D56"/>
<path d="M82.944 18.7471C88.0078 18.7471 92.1129 14.5505 92.1129 9.37357C92.1129 4.19669 88.0078 0 82.944 0C77.8801 0 73.775 4.19669 73.775 9.37357C73.775 14.5505 77.8801 18.7471 82.944 18.7471Z" fill="#3F3D56"/>
<path d="M512.522 2.32336H490.022C489.576 2.33222 489.152 2.51561 488.839 2.83415C488.527 3.15269 488.352 3.58099 488.352 4.02707C488.352 4.47315 488.527 4.90144 488.839 5.21999C489.152 5.53853 489.576 5.72192 490.022 5.73077H512.522C512.968 5.72192 513.393 5.53853 513.705 5.21999C514.017 4.90144 514.192 4.47315 514.192 4.02707C514.192 3.58099 514.017 3.15269 513.705 2.83415C513.393 2.51561 512.968 2.33222 512.522 2.32336V2.32336Z" fill="#3F3D56"/>
<path d="M512.522 8.71851H490.022C489.576 8.72736 489.152 8.91075 488.839 9.22929C488.527 9.54783 488.352 9.97614 488.352 10.4222C488.352 10.8683 488.527 11.2966 488.839 11.6151C489.152 11.9337 489.576 12.1171 490.022 12.1259H512.522C512.968 12.1171 513.393 11.9337 513.705 11.6151C514.017 11.2966 514.192 10.8683 514.192 10.4222C514.192 9.97614 514.017 9.54783 513.705 9.22929C513.393 8.91075 512.968 8.72736 512.522 8.71851V8.71851Z" fill="#3F3D56"/>
<path d="M512.522 15.1053H490.022C489.576 15.1142 489.152 15.2976 488.839 15.6161C488.527 15.9347 488.352 16.363 488.352 16.8091C488.352 17.2551 488.527 17.6834 488.839 18.002C489.152 18.3205 489.576 18.5039 490.022 18.5128H512.522C512.968 18.5039 513.393 18.3205 513.705 18.002C514.017 17.6834 514.192 17.2551 514.192 16.8091C514.192 16.363 514.017 15.9347 513.705 15.6161C513.393 15.2976 512.968 15.1142 512.522 15.1053V15.1053Z" fill="#3F3D56"/>
<path d="M504.12 59.4501H20.7695C18.0931 59.4541 15.5274 60.5191 13.6349 62.4116C11.7424 64.3042 10.6775 66.8699 10.6735 69.5464V71.1746C10.6775 73.8511 11.7424 76.4168 13.6349 78.3093C15.5274 80.2019 18.0931 81.2669 20.7695 81.2709H504.12C506.797 81.2669 509.362 80.2019 511.255 78.3093C513.147 76.4168 514.212 73.8511 514.216 71.1746V69.5464C514.212 66.8699 513.147 64.3042 511.255 62.4116C509.362 60.5191 506.797 59.4541 504.12 59.4501V59.4501Z" fill="#F0F0F0"/>
<path d="M79.101 74.3891H33.0915C32.0621 74.3875 31.0754 73.9775 30.348 73.2491C29.6206 72.5206 29.212 71.5332 29.212 70.5037C29.212 69.4743 29.6206 68.4869 30.348 67.7584C31.0754 67.0299 32.0621 66.6199 33.0915 66.6184H79.101C84.1115 66.5484 84.1616 74.4596 79.101 74.3891Z" fill="white"/>
<path d="M216.736 74.3891H170.727C169.697 74.3875 168.71 73.9775 167.983 73.2491C167.256 72.5206 166.847 71.5332 166.847 70.5037C166.847 69.4743 167.256 68.4869 167.983 67.7584C168.71 67.0299 169.697 66.6199 170.727 66.6184H216.736C221.746 66.5484 221.797 74.4596 216.736 74.3891Z" fill="white"/>
<path d="M354.371 74.3891H308.362C307.332 74.3875 306.345 73.9775 305.618 73.2491C304.891 72.5206 304.482 71.5332 304.482 70.5037C304.482 69.4743 304.891 68.4869 305.618 67.7584C306.345 67.0299 307.332 66.6199 308.362 66.6184H354.371C359.382 66.5484 359.432 74.4596 354.371 74.3891Z" fill="white"/>
<path d="M484.873 74.8087H438.863C437.833 74.8087 436.844 74.3994 436.116 73.6707C435.387 72.9421 434.978 71.9539 434.978 70.9234C434.978 69.8929 435.387 68.9047 436.116 68.1761C436.844 67.4474 437.833 67.0381 438.863 67.0381H484.873C489.883 66.9681 489.933 74.8793 484.873 74.8087Z" fill="#FF7A00"/>
<path d="M413.088 59.4501H411.41V81.2709H413.088V59.4501Z" fill="white"/>
<path d="M239.404 382.409H42.1382C40.3805 382.407 38.6954 381.708 37.4525 380.465C36.2097 379.222 35.5105 377.537 35.5085 375.779V346.887C35.5105 345.129 36.2097 343.444 37.4525 342.201C38.6954 340.958 40.3805 340.259 42.1382 340.257H239.404C241.161 340.259 242.846 340.958 244.089 342.201C245.332 343.444 246.031 345.129 246.033 346.887V375.779C246.031 377.537 245.332 379.222 244.089 380.465C242.846 381.708 241.161 382.407 239.404 382.409V382.409Z" fill="#F0F0F0"/>
<path d="M220.237 377.937H46.611C44.8533 377.935 43.1683 377.236 41.9254 375.993C40.6825 374.75 39.9834 373.065 39.9814 371.307V351.363C39.9834 349.605 40.6825 347.92 41.9254 346.677C43.1683 345.434 44.8533 344.735 46.611 344.733H234.932C236.69 344.735 238.375 345.434 239.617 346.677C240.86 347.92 241.559 349.605 241.561 351.363V356.612C241.555 362.266 239.306 367.686 235.309 371.684C231.311 375.682 225.891 377.931 220.237 377.937V377.937Z" fill="white"/>
<path d="M160.346 359.278H81.0603C80.6069 359.278 80.172 359.098 79.8513 358.777C79.5307 358.456 79.3505 358.021 79.3505 357.568C79.3505 357.114 79.5307 356.68 79.8513 356.359C80.172 356.038 80.6069 355.858 81.0603 355.858H160.346C160.799 355.858 161.234 356.038 161.555 356.359C161.876 356.68 162.056 357.114 162.056 357.568C162.056 358.021 161.876 358.456 161.555 358.777C161.234 359.098 160.799 359.278 160.346 359.278V359.278Z" fill="#E6E6E6"/>
<path d="M200.482 366.271H81.0603C80.8355 366.272 80.6128 366.228 80.4049 366.142C80.197 366.056 80.008 365.931 79.8489 365.772C79.6897 365.613 79.5634 365.424 79.4773 365.216C79.3911 365.009 79.3468 364.786 79.3468 364.561C79.3468 364.336 79.3911 364.114 79.4773 363.906C79.5634 363.698 79.6897 363.51 79.8489 363.351C80.008 363.192 80.197 363.066 80.4049 362.981C80.6128 362.895 80.8355 362.851 81.0603 362.851H200.482C200.935 362.852 201.369 363.033 201.688 363.354C202.008 363.674 202.188 364.108 202.188 364.561C202.188 365.014 202.008 365.448 201.688 365.769C201.369 366.09 200.935 366.27 200.482 366.271V366.271Z" fill="#E6E6E6"/>
<path d="M252.005 307.201H27.0805C25.2857 307.199 23.565 306.485 22.2959 305.216C21.0268 303.946 20.3129 302.226 20.3109 300.431V128.493C20.3129 126.698 21.0268 124.978 22.2959 123.708C23.565 122.439 25.2857 121.725 27.0805 121.724H252.005C253.799 121.725 255.52 122.439 256.789 123.708C258.058 124.978 258.772 126.698 258.774 128.493V300.431C258.772 302.226 258.058 303.946 256.789 305.216C255.52 306.485 253.799 307.199 252.005 307.201V307.201Z" fill="white"/>
<path d="M252.005 308.04H27.0806C25.0634 308.038 23.1294 307.235 21.703 305.809C20.2765 304.382 19.4741 302.448 19.4718 300.431V128.493C19.4741 126.476 20.2765 124.542 21.703 123.115C23.1294 121.689 25.0634 120.886 27.0806 120.884H252.005C254.022 120.886 255.956 121.689 257.382 123.115C258.809 124.542 259.611 126.476 259.613 128.493V300.431C259.611 302.448 258.809 304.382 257.382 305.809C255.956 307.235 254.022 308.038 252.005 308.04ZM27.0806 122.563C25.5084 122.564 24.0011 123.19 22.8893 124.301C21.7775 125.413 21.1521 126.921 21.1502 128.493V300.431C21.152 302.003 21.7774 303.511 22.8892 304.622C24.0009 305.734 25.5083 306.36 27.0806 306.361H252.005C253.577 306.36 255.084 305.734 256.196 304.622C257.308 303.511 257.933 302.003 257.935 300.431V128.493C257.933 126.921 257.308 125.413 256.196 124.301C255.084 123.19 253.577 122.564 252.005 122.563L27.0806 122.563Z" fill="#F0F0F0"/>
<path d="M20.8304 274.469V300.431C20.8329 302.088 21.4921 303.676 22.6637 304.848C23.8353 306.019 25.4235 306.679 27.0803 306.681H252.005C253.662 306.679 255.25 306.019 256.422 304.848C257.593 303.676 258.252 302.088 258.255 300.431V274.469H20.8304Z" fill="#F0F0F0"/>
<path d="M22.9499 122.819L22.0451 124.232L257.802 275.176L258.707 273.763L22.9499 122.819Z" fill="#F0F0F0"/>
<path d="M258.468 122.819L22.7108 273.763L23.6156 275.176L259.373 124.232L258.468 122.819Z" fill="#F0F0F0"/>
<path d="M457.69 493.309L447.292 493.308L442.345 453.2L457.692 453.201L457.69 493.309Z" fill="#A0616A"/>
<path d="M457.413 489.911L446.318 485.404L445.991 485.27L439.864 489.911C436.502 489.91 433.27 491.208 430.842 493.533C428.413 495.858 426.977 499.032 426.831 502.391C426.814 502.575 426.814 502.768 426.814 502.961V503.389H460.342V489.911H457.413Z" fill="#2F2E41"/>
<path d="M433.339 483.632L423.53 487.083L405.552 450.89L420.029 445.797L433.339 483.632Z" fill="#A0616A"/>
<path d="M431.95 480.518L419.988 479.95L419.635 479.932L415.396 486.343C412.225 487.459 409.606 489.756 408.087 492.755C406.568 495.755 406.266 499.225 407.244 502.441C407.289 502.621 407.353 502.803 407.417 502.985L407.559 503.389L439.186 492.261L434.713 479.546L431.95 480.518Z" fill="#2F2E41"/>
<path d="M461.364 320.372C470.877 320.003 459.093 395.813 459.093 395.813C459.093 395.813 462.54 462.371 461.81 465.864C461.079 469.357 461.717 478.777 461.717 478.777C459.854 475.385 440.626 477.945 440.626 477.945L438.01 410.489L424.655 356.44L406.139 392.67L423.885 448.28C423.885 448.28 431.072 454.93 430.308 457.558C429.544 460.186 410.719 466.113 407.26 466.247C403.801 466.381 405.363 461.99 405.195 457.666C405.027 453.342 388.75 413.265 383.024 399.629C377.299 385.993 381.75 366.766 384.673 352.794C387.595 338.823 402.971 312.603 402.971 312.603C422.056 291.076 451.852 320.741 461.364 320.372Z" fill="#2F2E41"/>
<path d="M345.434 259.107C345.955 260.103 346.688 260.972 347.582 261.653C348.475 262.335 349.507 262.813 350.605 263.052C351.703 263.292 352.84 263.288 353.936 263.041C355.032 262.793 356.06 262.309 356.949 261.621L379.825 276.546L379.755 262.352L358.043 250.355C356.788 248.939 355.058 248.032 353.179 247.806C351.301 247.581 349.405 248.052 347.851 249.131C346.297 250.209 345.193 251.821 344.747 253.66C344.302 255.498 344.546 257.436 345.434 259.107V259.107Z" fill="#A0616A"/>
<path d="M456.424 332.525C432.833 332.526 419.833 327.803 412.929 323.586C404.487 318.43 403.043 312.993 402.986 312.764L402.969 312.698L403.79 302.358L404.15 301.553C405.806 297.847 406.025 293.657 404.766 289.798L404.74 289.718L404.747 289.636L410.263 218.093L429.783 211.698L435.462 205.992L460.746 205.626L464.269 212.768L484.202 220.272L474.409 278.564L469.715 286.656L471.604 295.471L471.591 295.551L465.432 332.31L465.093 332.325C462.056 332.461 459.166 332.528 456.424 332.525Z" fill="#3F3D56"/>
<path d="M395.393 287.891L386.138 282.404L385.558 281.567C384.38 279.871 382.82 278.476 381.005 277.492C379.19 276.509 377.17 275.964 375.106 275.903L374.998 275.9L362.251 268.406L367.535 252.927L387.517 258.83L401.448 224.215C402.214 222.314 403.491 220.662 405.139 219.444C406.786 218.226 408.74 217.488 410.781 217.314C412.823 217.139 414.873 217.534 416.704 218.456C418.534 219.377 420.073 220.788 421.15 222.531C422.253 224.354 422.825 226.448 422.801 228.578V251.228L422.717 251.34L395.393 287.891Z" fill="#3F3D56"/>
<path d="M457.267 319.212C457.465 318.106 457.903 317.056 458.55 316.138C459.198 315.219 460.039 314.454 461.014 313.895C461.989 313.337 463.074 312.999 464.194 312.906C465.314 312.812 466.441 312.965 467.495 313.354L484.83 292.245L489.028 305.805L471.922 323.771C471.151 325.499 469.774 326.884 468.05 327.664C466.326 328.443 464.376 328.563 462.57 328.001C460.763 327.439 459.226 326.234 458.248 324.614C457.271 322.994 456.922 321.072 457.267 319.212V319.212Z" fill="#A0616A"/>
<path d="M483.186 316.544L471.675 305.032L479.003 287.177L489.623 272.676C478.306 267.166 469.812 254.115 463.657 243.311L463.588 243.19L465.12 231.185C465.479 228.378 466.604 225.723 468.371 223.512C469.908 221.589 471.883 220.063 474.131 219.06C476.379 218.057 478.834 217.607 481.292 217.747C483.749 217.888 486.137 218.615 488.256 219.867C490.375 221.12 492.164 222.861 493.472 224.946L514.11 270.828L513.878 271.174L497.277 299.473L492.747 302.411L483.186 316.544Z" fill="#3F3D56"/>
<path d="M466.258 181.56C465.499 187.092 462.575 192.097 458.128 195.474C453.682 198.852 448.076 200.326 442.543 199.573C437.011 198.82 432.003 195.901 428.621 191.458C425.239 187.015 423.758 181.411 424.505 175.877L424.546 175.578C425.419 170.118 428.403 165.221 432.855 161.941C437.306 158.662 442.868 157.264 448.341 158.049C453.814 158.834 458.76 161.738 462.11 166.137C465.461 170.535 466.948 176.074 466.252 181.559L466.258 181.56Z" fill="#A0616A"/>
<path d="M460.896 192.412C461.978 190.215 463.089 187.855 462.785 185.424C462.481 182.993 460.097 180.67 457.756 181.392C456.357 181.824 455.299 183.206 453.836 183.277C451.822 183.375 450.668 181.07 450.042 179.155L447.489 171.352C445.039 173.262 442.196 174.608 439.166 175.293C436.135 175.978 432.991 175.985 429.957 175.314C427.587 174.773 425.193 173.716 423.803 171.722C422.413 169.728 422.422 166.635 424.328 165.127C425.263 164.387 426.507 164.107 427.401 163.318C427.955 162.828 428.337 162.173 428.49 161.45C428.643 160.727 428.559 159.973 428.251 159.301C427.942 158.629 427.426 158.074 426.778 157.719C426.129 157.363 425.384 157.225 424.651 157.326L431.077 156.523L429.163 153.06C429.891 153.556 430.714 153.894 431.58 154.052C432.446 154.211 433.335 154.188 434.191 153.983C435.92 153.672 437.548 152.96 439.24 152.485C443.339 151.438 447.669 151.758 451.57 153.396C455.471 155.034 458.731 157.901 460.854 161.561C462.435 161.033 464.14 160.998 465.741 161.461C467.343 161.923 468.766 162.861 469.823 164.151C471.543 166.335 472.011 169.248 472.077 172.027C472.203 177.506 471.008 182.935 468.594 187.856C467.902 189.419 466.908 190.829 465.668 192.007C465.044 192.59 464.3 193.03 463.488 193.296C462.676 193.561 461.816 193.646 460.967 193.544" fill="#2F2E41"/>
<path d="M119.485 170.734C119.829 175.641 121.274 180.408 123.714 184.679C128.857 193.71 137.675 200.249 147.173 204.136C159.039 208.992 172.266 209.141 184.859 208.058C196.555 207.053 208.132 204.722 219.871 204.241C228.95 203.951 238.038 204.168 247.092 204.891C264.659 206.138 282.152 208.451 299.533 211.256C304.241 212.006 308.938 212.812 313.625 213.674C314.068 213.713 314.506 213.794 314.934 213.917C315.019 213.952 315.156 213.925 315.234 213.974C315.375 214.063 314.662 213.748 315.094 214.105C315.697 214.738 316.235 215.43 316.699 216.171L323.118 224.432C324.959 226.801 326.668 229.679 329.047 231.547C330.724 232.843 332.748 233.613 334.863 233.76C336.977 233.908 339.088 233.425 340.93 232.375C342.853 231.159 344.387 229.417 345.348 227.355C346.825 224.647 348.587 222.104 350.603 219.77C358.24 210.861 368.854 205.381 377.731 197.884C382.031 194.402 385.701 190.207 388.581 185.482C391.038 181.206 392.565 176.46 393.064 171.554C394.127 161.591 391.07 151.431 385.928 142.955C380.335 133.849 372.3 126.495 362.736 121.727C351.993 116.253 340.104 113.587 328.187 112.258C315.534 110.847 302.734 110.852 290.02 110.994C275.75 111.153 261.507 111.781 247.29 112.877C233.053 113.979 218.872 115.545 204.748 117.576C191.195 119.525 177.476 121.556 164.209 125.004C152.489 128.05 140.803 132.811 132.051 141.437C124.269 149.107 118.857 159.603 119.485 170.734Z" fill="#FF7A00"/>
<path d="M184.996 173.903C184.417 173.877 183.849 173.732 183.329 173.475C182.809 173.219 182.347 172.858 181.973 172.414C181.599 171.971 181.321 171.455 181.156 170.899C180.992 170.343 180.944 169.759 181.016 169.183L181.317 166.812C181.375 166.358 181.321 165.896 181.16 165.466C181 165.037 180.738 164.653 180.396 164.347L178.615 162.756C178.032 162.235 177.606 161.562 177.386 160.811C177.166 160.061 177.16 159.264 177.369 158.511C177.578 157.757 177.994 157.077 178.569 156.548C179.145 156.018 179.857 155.66 180.625 155.515L182.973 155.069C183.423 154.983 183.845 154.79 184.204 154.505C184.563 154.22 184.847 153.852 185.031 153.433L185.995 151.245C186.31 150.529 186.82 149.916 187.465 149.475C188.111 149.034 188.867 148.783 189.648 148.749C190.429 148.715 191.204 148.9 191.885 149.284C192.567 149.667 193.127 150.234 193.503 150.919L194.652 153.014C194.872 153.416 195.187 153.759 195.569 154.012C195.952 154.265 196.39 154.422 196.846 154.468L199.223 154.708C200.001 154.787 200.741 155.082 201.36 155.559C201.979 156.037 202.453 156.678 202.726 157.411C203 158.143 203.063 158.938 202.909 159.704C202.754 160.471 202.389 161.179 201.853 161.748L200.216 163.489C199.902 163.822 199.674 164.227 199.551 164.668C199.428 165.11 199.415 165.574 199.512 166.022L200.017 168.359C200.183 169.123 200.131 169.918 199.868 170.654C199.605 171.391 199.141 172.038 198.529 172.525C197.918 173.011 197.182 173.317 196.405 173.407C195.629 173.497 194.843 173.368 194.135 173.035L191.974 172.017C191.56 171.82 191.104 171.728 190.646 171.748C190.188 171.767 189.741 171.899 189.346 172.13L187.28 173.332C186.589 173.737 185.797 173.935 184.996 173.903V173.903Z" fill="white"/>
<path d="M218.646 172.926C217.58 172.877 216.572 172.427 215.823 171.666C215.371 171.187 215.034 170.611 214.837 169.983C214.64 169.354 214.589 168.689 214.687 168.038L214.963 165.863C215.022 165.399 214.967 164.929 214.804 164.491C214.641 164.054 214.373 163.663 214.025 163.352L212.373 161.876C211.886 161.46 211.498 160.941 211.237 160.356C210.975 159.771 210.848 159.135 210.863 158.495C210.899 157.546 211.257 156.638 211.876 155.919C212.496 155.2 213.342 154.713 214.275 154.537L216.595 154.097C217.054 154.009 217.485 153.812 217.85 153.521C218.216 153.231 218.505 152.855 218.693 152.428L219.558 150.464C219.867 149.719 220.376 149.073 221.028 148.599C221.681 148.124 222.451 147.838 223.256 147.773C224.044 147.729 224.829 147.909 225.519 148.293C226.208 148.676 226.775 149.248 227.153 149.942L228.288 152.012C228.513 152.422 228.834 152.771 229.224 153.029C229.613 153.287 230.06 153.447 230.525 153.494L232.728 153.716C233.367 153.766 233.986 153.958 234.542 154.278C235.097 154.598 235.574 155.038 235.938 155.566C236.465 156.354 236.709 157.299 236.63 158.244C236.551 159.19 236.154 160.081 235.502 160.771L233.885 162.491C233.565 162.831 233.333 163.243 233.208 163.693C233.083 164.142 233.069 164.616 233.168 165.072L233.634 167.229C233.783 167.852 233.793 168.5 233.661 169.127C233.53 169.754 233.261 170.343 232.874 170.854C232.289 171.603 231.466 172.131 230.541 172.35C229.616 172.569 228.644 172.466 227.785 172.058L225.646 171.05C225.224 170.851 224.76 170.758 224.294 170.778C223.828 170.798 223.374 170.932 222.971 171.166L220.93 172.355C220.239 172.759 219.446 172.958 218.646 172.926V172.926Z" fill="white"/>
<path d="M252.382 172.784C251.803 172.757 251.235 172.612 250.715 172.355C250.195 172.099 249.733 171.738 249.359 171.295C248.985 170.851 248.707 170.335 248.543 169.779C248.378 169.223 248.33 168.639 248.402 168.063L248.703 165.692C248.761 165.238 248.707 164.776 248.547 164.346C248.386 163.917 248.124 163.533 247.782 163.228L246.001 161.636C245.418 161.115 244.993 160.442 244.772 159.691C244.552 158.941 244.546 158.144 244.755 157.391C244.965 156.637 245.38 155.957 245.956 155.428C246.531 154.898 247.243 154.541 248.011 154.395L250.359 153.949C250.809 153.863 251.232 153.67 251.59 153.385C251.949 153.1 252.233 152.732 252.418 152.313L253.381 150.125C253.697 149.409 254.206 148.797 254.852 148.356C255.497 147.914 256.253 147.663 257.034 147.629C257.815 147.595 258.59 147.78 259.272 148.164C259.953 148.547 260.513 149.114 260.89 149.799L262.038 151.894C262.259 152.296 262.573 152.639 262.956 152.892C263.338 153.145 263.776 153.302 264.232 153.348L266.609 153.588C267.387 153.667 268.127 153.962 268.747 154.439C269.366 154.917 269.839 155.558 270.112 156.291C270.386 157.023 270.449 157.818 270.295 158.584C270.141 159.351 269.775 160.059 269.239 160.628L267.602 162.369C267.288 162.702 267.06 163.107 266.937 163.548C266.815 163.99 266.801 164.455 266.899 164.902L267.404 167.239C267.569 168.003 267.517 168.798 267.254 169.534C266.991 170.271 266.528 170.919 265.916 171.405C265.304 171.891 264.568 172.197 263.792 172.287C263.015 172.377 262.229 172.249 261.522 171.915L259.36 170.897C258.946 170.701 258.49 170.608 258.032 170.628C257.574 170.648 257.128 170.779 256.732 171.01L254.667 172.212C253.975 172.617 253.183 172.815 252.382 172.784V172.784Z" fill="white"/>
<path opacity="0.2" d="M285.197 171.893C284.618 171.867 284.05 171.721 283.53 171.465C283.01 171.209 282.548 170.848 282.174 170.404C281.8 169.961 281.522 169.445 281.358 168.889C281.193 168.333 281.145 167.748 281.217 167.173L281.518 164.802C281.576 164.347 281.522 163.886 281.362 163.456C281.201 163.027 280.939 162.643 280.597 162.337L278.816 160.746C278.233 160.225 277.807 159.551 277.587 158.801C277.367 158.051 277.361 157.254 277.57 156.5C277.779 155.747 278.195 155.067 278.771 154.538C279.346 154.008 280.058 153.65 280.826 153.505L283.174 153.059C283.624 152.973 284.047 152.78 284.405 152.495C284.764 152.21 285.048 151.842 285.233 151.423L286.196 149.234C286.512 148.519 287.021 147.906 287.667 147.465C288.312 147.024 289.068 146.773 289.849 146.739C290.63 146.705 291.405 146.89 292.087 147.274C292.768 147.657 293.328 148.224 293.704 148.909L294.853 151.004C295.073 151.406 295.388 151.749 295.771 152.002C296.153 152.255 296.591 152.412 297.047 152.458L299.424 152.698C300.202 152.777 300.942 153.072 301.561 153.549C302.181 154.027 302.654 154.668 302.927 155.401C303.201 156.133 303.264 156.927 303.11 157.694C302.956 158.461 302.59 159.169 302.054 159.738L300.417 161.478C300.103 161.812 299.875 162.217 299.752 162.658C299.63 163.1 299.616 163.564 299.714 164.012L300.219 166.349C300.384 167.113 300.332 167.908 300.069 168.644C299.806 169.38 299.343 170.028 298.731 170.515C298.119 171.001 297.383 171.307 296.606 171.397C295.83 171.487 295.044 171.358 294.337 171.025L292.175 170.007C291.761 169.81 291.305 169.718 290.847 169.738C290.389 169.757 289.943 169.888 289.547 170.12L287.482 171.322C286.79 171.727 285.998 171.925 285.197 171.893V171.893Z" fill="black"/>
<path opacity="0.2" d="M318.012 171.003C317.433 170.977 316.865 170.831 316.345 170.575C315.825 170.319 315.363 169.957 314.989 169.514C314.615 169.071 314.337 168.555 314.172 167.999C314.008 167.442 313.96 166.858 314.032 166.283L314.333 163.912C314.391 163.457 314.337 162.995 314.176 162.566C314.016 162.137 313.754 161.753 313.412 161.447L311.631 159.856C311.048 159.335 310.622 158.661 310.402 157.911C310.182 157.161 310.176 156.364 310.385 155.61C310.594 154.857 311.01 154.177 311.585 153.647C312.161 153.118 312.873 152.76 313.641 152.614L315.989 152.168C316.439 152.083 316.861 151.889 317.22 151.604C317.579 151.32 317.863 150.952 318.047 150.533L319.011 148.344C319.327 147.629 319.836 147.016 320.481 146.575C321.127 146.134 321.883 145.882 322.664 145.848C323.445 145.815 324.22 146 324.901 146.383C325.583 146.767 326.143 147.333 326.519 148.019L327.668 150.114C327.888 150.516 328.203 150.858 328.585 151.112C328.968 151.365 329.406 151.521 329.862 151.568L332.239 151.808C333.017 151.886 333.757 152.181 334.376 152.659C334.995 153.136 335.469 153.778 335.742 154.51C336.016 155.243 336.079 156.037 335.925 156.804C335.77 157.57 335.405 158.278 334.869 158.848L333.232 160.588C332.918 160.922 332.69 161.327 332.567 161.768C332.444 162.209 332.431 162.674 332.528 163.122L333.033 165.459C333.199 166.223 333.147 167.018 332.884 167.754C332.621 168.49 332.157 169.138 331.545 169.625C330.934 170.111 330.198 170.417 329.421 170.507C328.645 170.597 327.859 170.468 327.151 170.135L324.99 169.116C324.576 168.92 324.12 168.828 323.662 168.847C323.204 168.867 322.758 168.998 322.362 169.229L320.296 170.432C319.605 170.836 318.813 171.035 318.012 171.003Z" fill="black"/>
<path d="M527.076 450.994L528.036 429.409C538.044 424.06 549.205 421.234 560.552 421.178C544.936 433.946 546.887 458.559 536.299 475.73C532.956 481.06 528.456 485.569 523.133 488.923C517.81 492.278 511.801 494.391 505.55 495.107L492.481 503.109C490.688 493.112 491.083 482.845 493.64 473.015C496.197 463.185 500.854 454.026 507.291 446.169C510.946 441.798 515.137 437.904 519.765 434.579C522.895 442.832 527.076 450.994 527.076 450.994Z" fill="#F2F2F2"/>
<path d="M602.001 505H251.718C251.453 505 251.199 504.895 251.011 504.707C250.824 504.52 250.719 504.266 250.719 504.001C250.719 503.736 250.824 503.482 251.011 503.294C251.199 503.107 251.453 503.001 251.718 503.001H602.001C602.266 503.001 602.52 503.107 602.707 503.294C602.895 503.482 603 503.736 603 504.001C603 504.266 602.895 504.52 602.707 504.707C602.52 504.895 602.266 505 602.001 505V505Z" fill="#CACACA"/>
</g>
<defs>
<clipPath id="clip0_27_101">
<rect width="603" height="505" fill="white"/>
</clipPath>
</defs>
</svg>
